<?xml version="1.0" encoding="utf-8"?>
<!-- Generator: Adobe Illustrator 19.0.0, SVG Export Plug-In . SVG Version: 6.00 Build 0)  -->
<svg version="1.1" id="Layer_1" xmlns="http://www.w3.org/2000/svg" xmlns:xlink="http://www.w3.org/1999/xlink" x="0px" y="0px"
	 viewBox="0 0 96 96" style="enable-background:new 0 0 96 96;" xml:space="preserve">
<style type="text/css">
	.st0{fill:#333333;}
</style>
<g id="XMLID_1_">
	<path id="XMLID_8_" class="st0" d="M29.4,38.7c-2.6,0-4.6,2.1-4.6,4.6v9.3c0,2.6,2.1,4.6,4.6,4.6h37.1c2.6,0,4.6-2.1,4.6-4.6v-9.3
		c0-2.6-2.1-4.6-4.6-4.6H29.4z M66.6,46.8l-5.8,5.8h-7L48,46.8l-5.8,5.8h-7l-5.8-5.8v-3.5h3.5l5.8,5.8l5.8-5.8h7l5.8,5.8l5.8-5.8
		h3.5V46.8z M38.7,61.9h18.6v4.6H38.7V61.9z M48,20.1c-17.9,0-32.5,13.5-32.5,30.2v20.9c0,2.6,2.1,4.6,4.6,4.6h55.7
		c2.6,0,4.6-2.1,4.6-4.6V50.3C80.5,33.7,65.9,20.1,48,20.1z M75.9,71.2H20.1V50.3c0-14.3,12.3-26,27.9-26s27.9,11.6,27.9,26V71.2z"
		/>
</g>
</svg>
